# xmcd
#
# Track frame offsets: 
#        182
#        11577
#        22830
#        38332
#        58795
#        76145
#
# Disc length: 1280 seconds
#
# Revision: 2
# Processed by: cddbd v1.4PL0 Copyright (c) Steve Scherf et al.
# Submitted via: ExactAudioCopy v0.90a11
#
DISCID=3304fe06
DTITLE=Smokin' Armadillos - Out Of The Burrow
DYEAR=1900
DGENRE=
TTITLE0=I'm A Cowboy (Radio Cut)
TTITLE1=My Girlfriend Might
TTITLE2=One More Town
TTITLE3=Red Rock
TTITLE4=Country Music
TTITLE5=I'm A Cowboy (Dance Cut)
EXTD=
EXTT0=
EXTT1=
EXTT2=
EXTT3=
EXTT4=
EXTT5=
PLAYORDER=
